<svg width="49" height="25" viewBox="0 0 49 25" fill="none" xmlns="http://www.w3.org/2000/svg">
<rect x="0.5" y="0.0836182" width="48" height="24" rx="2" fill="#FBFAF8"/>
<path fill-rule="evenodd" clip-rule="evenodd" d="M15.8285 6.48761C15.8955 7.08568 15.6503 7.68598 15.2855 8.11759C14.9207 8.54919 14.3225 8.88472 13.7372 8.84003C13.6572 8.25426 13.9527 7.64353 14.2905 7.26108C14.6675 6.82984 15.3034 6.50884 15.8285 6.48761ZM17.7212 9.97143C17.6255 10.0287 16.5864 10.65 16.5987 11.9114C16.6124 13.4205 17.9233 13.9459 17.9969 13.9754C17.9986 13.9761 17.9996 13.9765 18 13.9767C17.9993 13.9787 17.9979 13.9829 17.996 13.9891C17.963 14.0919 17.7521 14.75 17.2769 15.4287C16.8416 16.0502 16.3911 16.6699 15.6794 16.6825C15.3378 16.6887 15.1094 16.5921 14.872 16.4917C14.6234 16.3866 14.3649 16.2774 13.9563 16.2774C13.5284 16.2774 13.258 16.3899 12.9976 16.4984C12.7717 16.5925 12.5533 16.6834 12.2461 16.6952C11.5596 16.7201 11.0371 16.023 10.5984 15.4033C9.70165 14.1364 9.0166 11.8224 9.93661 10.2598C10.3936 9.48411 11.21 8.99292 12.0965 8.98063C12.4786 8.97366 12.8486 9.11711 13.1726 9.24269C13.4201 9.33864 13.6408 9.42415 13.8192 9.42415C13.9793 9.42415 14.1939 9.34135 14.4443 9.24478C14.8382 9.09279 15.3205 8.90672 15.8176 8.95568C16.1577 8.97057 17.1131 9.09086 17.7266 9.96822C17.7254 9.96895 17.7236 9.97002 17.7212 9.97143Z" fill="#2A2D2E"/>
<path d="M23.0105 11.3908V15.0836H21.9014V6.35737H25.5089C26.427 6.35737 27.1177 6.60924 27.5808 7.11299C27.987 7.55174 28.1902 8.15299 28.1902 8.91674C28.1902 9.68862 27.9424 10.3021 27.4467 10.7571C26.9917 11.1796 26.427 11.3908 25.7527 11.3908H23.0105ZM23.0105 10.4036H25.3383C25.8664 10.4036 26.2808 10.2696 26.5814 10.0014C26.882 9.73331 27.0324 9.35549 27.0324 8.86799C27.0324 8.38862 26.882 8.01487 26.5814 7.74674C26.2808 7.47862 25.8664 7.34456 25.3383 7.34456H23.0105V10.4036ZM34.5716 14.2427V15.0471C34.2954 15.1446 34.0801 15.1933 33.9257 15.1933C33.2757 15.1933 32.9222 14.8967 32.8654 14.3036C32.4185 14.913 31.7076 15.2177 30.7326 15.2177C30.0582 15.2177 29.5341 15.0308 29.1604 14.6571C28.8354 14.3321 28.6729 13.9136 28.6729 13.4017C28.6729 12.8167 28.8801 12.3658 29.2944 12.0489C29.5301 11.8702 30.0216 11.6955 30.7691 11.5249L32.8166 11.0617L32.8288 10.5377C32.8288 9.91206 32.3576 9.59924 31.4151 9.59924C30.5132 9.59924 30.0297 9.96487 29.9647 10.6961H28.9532C28.9776 10.1436 29.1157 9.72112 29.3676 9.42862C29.7982 8.93299 30.4969 8.68518 31.4638 8.68518C33.0319 8.68518 33.816 9.25393 33.816 10.3914V13.8892C33.816 14.198 33.9501 14.3524 34.2182 14.3524C34.2507 14.3524 34.336 14.328 34.4741 14.2792C34.5229 14.263 34.5554 14.2508 34.5716 14.2427ZM32.8288 11.8783L31.2201 12.2927C30.6432 12.4389 30.2451 12.5892 30.0257 12.7436C29.8144 12.898 29.7088 13.1133 29.7088 13.3896C29.7088 14.0314 30.1232 14.3524 30.9519 14.3524C31.5369 14.3524 32.0326 14.1614 32.4388 13.7796C32.6988 13.5439 32.8288 13.2758 32.8288 12.9752V11.8783ZM38.8523 8.81924H39.9248L37.1338 16.3999C36.8088 17.2611 36.2685 17.6917 35.5129 17.6917C35.1554 17.6917 34.8426 17.6105 34.5744 17.448L34.7694 16.5827C34.9726 16.6639 35.1716 16.7046 35.3666 16.7046C35.7566 16.7046 36.0288 16.5014 36.1832 16.0952L36.561 15.0958L34.4404 8.81924H35.5129L37.1094 13.6942L38.8523 8.81924Z" fill="#2A2D2E"/>
</svg>
