<svg width="49" height="25" viewBox="0 0 49 25" fill="none" xmlns="http://www.w3.org/2000/svg">
<g clip-path="url(#clip0_120_4590)">
<rect x="0.75" y="0.0836182" width="48" height="24" rx="2" fill="#FBFAF8"/>
<path fill-rule="evenodd" clip-rule="evenodd" d="M24.75 24.0836C24.75 24.0836 33.6273 22.4441 39.4091 20.002C45.1668 17.78 48.75 15.0836 48.75 15.0836V24.0836H24.75Z" fill="#F16822"/>
<path fill-rule="evenodd" clip-rule="evenodd" d="M39.3018 9.22101H41.2928C41.9281 9.22101 43.1928 9.54494 43.1928 10.9012C43.1928 12.2588 41.8854 12.5397 41.8854 12.5397L43.7499 14.9251H42.2675L40.6196 12.6485H40.4934V14.9251H39.3018V9.22101ZM40.493 10.172V11.8368H41.149C41.654 11.8368 41.9727 11.4114 41.9727 11.0395V10.9682C41.9727 10.597 41.654 10.172 41.149 10.172H40.493Z" fill="#2A2D2E"/>
<path fill-rule="evenodd" clip-rule="evenodd" d="M28.7817 9.22101H30.0951L31.7764 12.9577L33.361 9.22101H34.6747L32.1064 15.0699H31.3501L28.7817 9.22101Z" fill="#2A2D2E"/>
<path fill-rule="evenodd" clip-rule="evenodd" d="M11.2305 14.9251H12.4506V9.22101H11.2305V14.9251Z" fill="#2A2D2E"/>
<path fill-rule="evenodd" clip-rule="evenodd" d="M5.75 9.22089H7.74741C8.94654 9.22089 10.7057 10.2385 10.7057 12.047V12.068V12.0894C10.7057 13.8982 8.94654 14.9151 7.74741 14.9151H5.75V9.22089ZM6.90015 13.9661C6.90015 13.9661 9.46397 14.2358 9.46397 12.1166V12.0834C9.46397 9.96389 6.90015 10.2339 6.90015 10.2339V13.9661Z" fill="#2A2D2E"/>
<path fill-rule="evenodd" clip-rule="evenodd" d="M38.4162 11.469V12.4751H36.3413V13.9188H38.5121V14.9248H35.1294V9.22076H38.5121V10.2268H36.3413V11.469H38.4162Z" fill="#2A2D2E"/>
<path fill-rule="evenodd" clip-rule="evenodd" d="M28.9961 12.1012C28.9961 13.7344 27.5775 15.0581 25.8288 15.0581C24.0794 15.0581 22.6611 13.7344 22.6611 12.1012C22.6611 10.4675 24.0794 9.14349 25.8288 9.14349C27.5775 9.14349 28.9961 10.4675 28.9961 12.1012Z" fill="#F16822"/>
<path fill-rule="evenodd" clip-rule="evenodd" d="M16.1912 10.5362C16.1912 10.5362 15.7892 10.1042 15.2494 10.1042C14.7107 10.1042 14.3994 10.4393 14.3994 10.6835C14.3994 10.9269 14.3893 11.0647 15.1591 11.3645C15.9297 11.6654 17.0621 11.8812 17.0621 13.1517C17.0621 14.4212 15.9967 15.0656 15.0389 15.0656C13.5277 15.0656 12.8481 13.9836 12.8481 13.9836L13.6086 13.2731C13.6086 13.2731 14.0907 14.0305 14.9317 14.0305C15.7723 14.0305 15.8192 13.4326 15.8192 13.236C15.8192 12.945 15.6382 12.6571 15.119 12.4794C14.5998 12.3006 13.18 12.1215 13.18 10.843C13.18 9.69488 14.099 9.12573 15.1291 9.12573C16.0499 9.12573 16.8508 9.79877 16.8508 9.79877L16.1912 10.5362Z" fill="#2A2D2E"/>
<path fill-rule="evenodd" clip-rule="evenodd" d="M22.1318 10.7732C21.7542 10.4087 21.2342 10.1439 20.6491 10.1439C19.502 10.1439 18.5722 11.0128 18.5722 12.0833C18.5722 13.1547 19.502 14.0226 20.6491 14.0226C21.2286 14.0226 21.756 13.7606 22.1321 13.4028L22.1318 14.7453C21.6875 14.9626 21.1844 15.0836 20.6491 15.0836C18.8745 15.0836 17.436 13.7407 17.436 12.0833C17.436 10.4266 18.8745 9.08362 20.6491 9.08362C21.1859 9.08362 21.6871 9.2064 22.1318 9.42434V10.7732Z" fill="#2A2D2E"/>
</g>
<defs>
<clipPath id="clip0_120_4590">
<rect x="0.75" y="0.0836182" width="48" height="24" rx="2" fill="white"/>
</clipPath>
</defs>
</svg>
