<svg width="49" height="25" viewBox="0 0 49 25" fill="none" xmlns="http://www.w3.org/2000/svg">
<rect x="0.625" y="0.583557" width="48" height="24" rx="2" fill="#FBFAF8"/>
<g clip-path="url(#clip0_120_4591)">
<path d="M18.9839 12.6874C18.9844 12.3472 18.954 12.0076 18.8928 11.6723H13.9092V13.5939H16.7629C16.7045 13.9006 16.5809 14.193 16.3996 14.4534C16.2183 14.7137 15.983 14.9367 15.708 15.1089V16.3595H17.4115C18.4089 15.4911 18.9839 14.2064 18.9839 12.6874Z" fill="#4285F4"/>
<path d="M13.909 17.5646C15.3338 17.5646 16.5363 17.122 17.4113 16.3595L15.7078 15.1114C15.2333 15.4164 14.6235 15.5887 13.909 15.5887C12.5311 15.5887 11.3608 14.7115 10.9425 13.5292H9.18799V14.8152C9.62763 15.6417 10.302 16.3366 11.1356 16.8221C11.9693 17.3076 12.9295 17.5647 13.909 17.5646Z" fill="#34A853"/>
<path d="M10.9425 13.5293C10.7213 12.9097 10.7213 12.2388 10.9425 11.6193V10.333H9.18791C8.81746 11.0286 8.62451 11.7963 8.62451 12.5749C8.62451 13.3535 8.81746 14.1212 9.18791 14.8168L10.9425 13.5293Z" fill="#FBBC04"/>
<path d="M23.7598 13.4469V16.9632H22.5776V8.27656H25.7108C26.0849 8.26896 26.4569 8.33151 26.8052 8.46056C27.1536 8.58962 27.4714 8.78263 27.7402 9.02842C28.0075 9.26353 28.2207 9.5481 28.3665 9.8644C28.5122 10.1807 28.5874 10.522 28.5874 10.8669C28.5874 11.2119 28.5122 11.5531 28.3665 11.8694C28.2207 12.1857 28.0075 12.4703 27.7402 12.7054C27.192 13.1991 26.5155 13.4456 25.7108 13.4448H23.7592L23.7598 13.4469ZM23.7598 9.34717V12.38H25.7411C26.0555 12.3854 26.3646 12.3033 26.6299 12.1439C26.8952 11.9845 27.1049 11.7549 27.2328 11.4837C27.3608 11.2125 27.4013 10.9117 27.3494 10.6188C27.2974 10.326 27.1553 10.0541 26.9408 9.83703C26.9301 9.82666 26.9207 9.81659 26.9085 9.80652C26.7594 9.65592 26.5781 9.53697 26.3766 9.45757C26.1751 9.37816 25.9581 9.34011 25.7398 9.34595L23.7598 9.34717ZM31.312 10.8268C32.1858 10.8268 32.8749 11.047 33.3792 11.4875C33.8835 11.9279 34.136 12.5322 34.1367 13.3002V16.9632H33.0061V16.1396H32.9554C32.466 16.8192 31.8149 17.1588 31.0022 17.1584C30.3093 17.1584 29.7294 16.9643 29.2625 16.5761C29.0386 16.3978 28.8597 16.1747 28.7386 15.9229C28.6175 15.6711 28.5574 15.397 28.5626 15.1205C28.5626 14.5052 28.8088 14.0162 29.3013 13.6534C29.7938 13.2906 30.4505 13.1088 31.2716 13.108C31.9729 13.108 32.552 13.23 33.0049 13.4713V13.2157C33.0062 13.0273 32.9632 12.8409 32.8788 12.6701C32.7945 12.4994 32.6709 12.3485 32.5171 12.2284C32.2045 11.9621 31.7971 11.8171 31.3763 11.8221C30.7167 11.8221 30.1944 12.0849 29.8094 12.6106L28.7709 11.9901C29.3418 11.2142 30.1885 10.8264 31.311 10.8268H31.312ZM29.7826 15.1443C29.782 15.2862 29.8171 15.4261 29.8851 15.5525C29.9532 15.679 30.0521 15.7883 30.1737 15.8715C30.4352 16.0655 30.7595 16.1684 31.092 16.1628C31.5904 16.1615 32.068 15.9742 32.4209 15.6418C32.8123 15.2937 33.008 14.8853 33.0078 14.4166C32.6391 14.1394 32.1253 14.0006 31.4664 14.0002C30.9864 14.0002 30.5861 14.1094 30.2655 14.3278C29.9425 14.5508 29.7809 14.8204 29.7809 15.1443H29.7826ZM40.6252 11.0217L36.6803 19.5836H35.4606L36.9242 16.5874L34.3292 11.0217H35.6134L37.4869 15.292H37.5124L39.3367 11.0217H40.6252Z" fill="#5F6368"/>
<path d="M13.909 9.55977C14.6623 9.54813 15.3902 9.81677 15.9355 10.3077L17.4449 8.88385C16.4882 8.03566 15.2212 7.56983 13.909 7.58387C12.9296 7.58405 11.9696 7.84121 11.1359 8.32665C10.3023 8.81208 9.62791 9.50669 9.18799 10.333L10.9425 11.6192C11.3608 10.437 12.5311 9.55977 13.909 9.55977Z" fill="#EA4335"/>
</g>
<defs>
<clipPath id="clip0_120_4591">
<rect width="32" height="12" fill="white" transform="translate(8.625 7.58356)"/>
</clipPath>
</defs>
</svg>
