<svg width="49" height="25" viewBox="0 0 49 25" fill="none" xmlns="http://www.w3.org/2000/svg">
<rect x="0.375" y="0.583618" width="48" height="24" rx="2" fill="#FBFAF8"/>
<path fill-rule="evenodd" clip-rule="evenodd" d="M30.1813 21.5836C35.2588 21.5836 39.3749 17.5542 39.3749 12.5836C39.3749 7.61306 35.2588 3.58362 30.1813 3.58362C25.1039 3.58362 20.9878 7.61306 20.9878 12.5836C20.9878 17.5542 25.1039 21.5836 30.1813 21.5836Z" fill="#F79E1B"/>
<path fill-rule="evenodd" clip-rule="evenodd" d="M18.5685 21.5836C23.646 21.5836 27.7621 17.5542 27.7621 12.5836C27.7621 7.61306 23.646 3.58362 18.5685 3.58362C13.4911 3.58362 9.375 7.61306 9.375 12.5836C9.375 17.5542 13.4911 21.5836 18.5685 21.5836Z" fill="#EB001B"/>
<path fill-rule="evenodd" clip-rule="evenodd" d="M24.3747 5.60559C22.3077 7.25593 20.9878 9.76887 20.9878 12.5836C20.9878 15.3983 22.3077 17.9113 24.3747 19.5616C26.4417 17.9113 27.7616 15.3983 27.7616 12.5836C27.7616 9.76887 26.4417 7.25593 24.3747 5.60559Z" fill="#FF5F00"/>
</svg>
