<svg width="49" height="25" viewBox="0 0 49 25" fill="none" xmlns="http://www.w3.org/2000/svg">
<rect x="0.25" y="0.583618" width="48" height="24" rx="2" fill="#FBFAF8"/>
<path fill-rule="evenodd" clip-rule="evenodd" d="M32.4163 8.03159C31.8391 7.81567 30.9345 7.58362 29.8043 7.58362C26.9246 7.58362 24.8953 9.02936 24.8783 11.1C24.8625 12.6322 26.3265 13.4854 27.4324 13.9961C28.5664 14.5175 28.9483 14.8509 28.9423 15.3171C28.9351 16.0315 28.0369 16.3577 27.1991 16.3577C26.0323 16.3577 25.4129 16.197 24.4556 15.799L24.0797 15.6294L23.6706 18.0152C24.3521 18.3121 25.61 18.5705 26.9173 18.5836C29.9814 18.5836 31.9706 17.1548 31.9928 14.943C32.0034 13.7306 31.2274 12.8079 29.5463 12.0481C28.5268 11.5547 27.9032 11.2251 27.91 10.7262C27.91 10.2842 28.4374 9.8095 29.5783 9.8095C30.5327 9.79465 31.2223 10.0021 31.7599 10.2184L32.0217 10.3406L32.4163 8.03159ZM18.9324 18.4254L20.7548 7.76945H23.669L21.8458 18.4254H18.9324ZM37.6388 7.77987H39.8911L42.2498 18.4282H39.545C39.545 18.4282 39.2781 17.2047 39.1908 16.8319C38.9654 16.8319 38.0239 16.8307 37.1391 16.8295L37.1268 16.8295C36.3471 16.8285 35.6142 16.8276 35.458 16.8276C35.3448 17.1157 34.8446 18.4282 34.8446 18.4282H31.7835L36.1119 8.66352C36.4192 7.96907 36.9407 7.77987 37.6388 7.77987ZM36.2962 14.648C36.5375 14.0342 37.4579 11.6687 37.4579 11.6687C37.4494 11.6826 37.506 11.5359 37.5834 11.3356L37.5835 11.3355C37.6646 11.1254 37.7686 10.8564 37.844 10.6519L38.0406 11.5707C38.0406 11.5707 38.5991 14.1139 38.7162 14.648H36.2962ZM13.6347 15.0436L16.4876 7.7772H19.5747L14.9866 18.4124L11.9025 18.4166L9.29395 9.09652C11.144 10.0196 12.7995 11.8641 13.3303 13.5669L13.6347 15.0436Z" fill="#1A1F71"/>
<path fill-rule="evenodd" clip-rule="evenodd" d="M10.9874 7.7702H6.28703L6.25 7.99164C9.90663 8.87444 12.3262 11.0057 13.3304 13.5672L12.3083 8.66955C12.1321 7.99461 11.62 7.79353 10.9874 7.7702Z" fill="#F9A51A"/>
</svg>
